<?xml version="1.0" encoding="UTF-8"?>
<svg width="259.6mm" height="66.944mm" version="1.1" viewBox="0 0 919.84298 237.20417" xmlns="http://www.w3.org/2000/svg" xmlns:cc="http://creativecommons.org/ns#" xmlns:dc="http://purl.org/dc/elements/1.1/" xmlns:rdf="http://www.w3.org/1999/02/22-rdf-syntax-ns#">
<defs>
<clipPath id="a">
<rect x="-84.921" y="457.58" width="920.71" height="239.29" fill="#e3e3e3" stroke="#e2e2e2" stroke-linecap="round" stroke-width="3"/>
</clipPath>
</defs>
<metadata>
<rdf:RDF>
<cc:Work rdf:about="">
<dc:format>image/svg+xml</dc:format>
<dc:type rdf:resource="http://purl.org/dc/dcmitype/StillImage"/>
<dc:title/>
</cc:Work>
</rdf:RDF>
</metadata>
<g transform="translate(84.921 -457.52)">
<g clip-path="url(#a)" stroke="#e2e2e2">
<path d="m-64.066 706.48c67.79-47.054 97.697-66.594 141.96-101.68 37.892-30.041 59.814-61.011 60.213-92.114 0.22005-17.164 1.1096-55.019-10.767-70.581l-11.564-15.153" fill="none" stroke-width="3"/>
<path d="m19.275 704.49c104.22-68.073 109.7-74.511 139.97-116.44 30.627-42.43 41.073-112.05 35.091-147.14s-27.116-6.3802-27.116-6.3802" fill="none" stroke-width="3"/>
<path d="m80.685 720.04c92.912-75.765 109.26-89.323 147.54-156.32s50.643-135.98 50.643-135.98" fill="none" stroke-width="3"/>
<path d="m155.25 712.46c3.9876-34.294 17.147-41.471 40.674-51.839 32.997-14.541 58.618-24.325 64.998-61.808 9.4451-55.49 29.11-78.556 53.036-99.691 23.926-21.134 21.533-66.992 21.533-66.992" fill="none" stroke-width="3"/>
<path d="m207.49 745.56c8.374-54.63 17.546-72.575 55.029-80.949 37.484-8.3741 45.06-5.9815 57.422-63.403 12.362-57.422 21.134-64.6 52.238-103.28 31.104-38.68 43.864-70.98 43.864-70.98" fill="none" stroke-width="3"/>
<path d="m296.02 737.19c9.5703-47.453 11.963-54.232 34.692-61.41 22.73-7.1777 49.048-17.546 59.416-44.263 10.368-26.717 11.165-59.416 8.7728-85.335s-5.9814-46.655 4.3864-53.036c10.368-6.3802 20.337 9.5703 36.287 1.9938 15.951-7.5765 29.907-26.318 44.263-57.422s15.951-10.767 15.951-10.767" fill="none" stroke-width="3"/>
<path d="m553.62 428.54c0.39876 4.7852 4.3581 33.479-16.349 67.391-27.515 45.06-60.612 61.011-61.808 102.08-1.1963 41.073 5.5827 60.213 33.496 108.86 27.913 48.649 30.705 25.122 30.705 25.122" fill="none" stroke-width="3"/>
<path d="m571.73 718.04c-85.143-99.975-87.684-114.59-37.276-188.03s40.242-92.285 40.242-92.285" fill="none" stroke-width="3"/>
<path d="m604.66 436.52c-17.147 51.44-24.723 64.201-44.662 91.716-7.1317 9.8418-24.849 28.686-25.521 48.25-0.68622 19.981 2.7868 26.72 9.5703 38.68 15.153 26.717 26.38 44.293 50.244 74.569l26.717 33.895" fill="none" stroke-width="3"/>
<path d="m640.55 440.9c-46.655 49.048-53.833 69.784-63.005 85.734-16.623 28.91-15.951 50.244-9.1716 68.587 6.779 18.343 30.306 43.465 47.852 59.017 22.181 19.66 116.44 77.759 116.44 77.759" fill="none" stroke-width="3"/>
<path d="m684.01 442.5c-37.484 30.705-55.827 50.244-67.79 71.777-9.1818 16.527-11.858 36.384-4.7852 59.017 7.9753 25.521 38.635 48.127 49.447 55.827 55.428 39.478 78.769 49.82 92.114 56.226 29.907 14.355 82.145 34.692 91.716 37.484 9.5703 2.7914 9.9691 2.7914 9.9691 2.7914" fill="none" stroke-width="3"/>
<g transform="matrix(1.1359 .17585 -.17585 1.1359 -143.51 -295.78)" fill="none" stroke-linecap="round" stroke-width="3">
<g transform="translate(-31.901 -282.52)">
<path d="m897.08 933.37v31.017"/>
<path d="m912.59 948.88h-31.017"/>
</g>
<g transform="translate(-185.39 -282.52)">
<path d="m897.08 933.37v31.017"/>
<path d="m912.59 948.88h-31.017"/>
</g>
<g transform="translate(-338.88 -282.52)">
<path d="m897.08 933.37v31.017"/>
<path d="m912.59 948.88h-31.017"/>
</g>
<g transform="translate(-492.37 -282.52)">
<path d="m897.08 933.37v31.017"/>
<path d="m912.59 948.88h-31.017"/>
</g>
<g transform="translate(-645.86 -282.52)">
<path d="m897.08 933.37v31.017"/>
<path d="m912.59 948.88h-31.017"/>
</g>
</g>
<path transform="matrix(.99999 -.0039229 .0039229 .99999 95.655 -45.154)" d="m577.22 586.87-11.212-2.0984-11.212-2.0984 7.4231-8.6603 7.4231-8.6602 3.7885 10.759z" fill="#e6e6e6" fill-rule="evenodd" stroke-width="1px"/>
</g>
</g>
</svg>
